<svg width="64" height="64" viewBox="0 0 64 64" fill="none" xmlns="http://www.w3.org/2000/svg">
<g filter="url(#filter0_d_36_240)">
<circle cx="32" cy="28" r="28" fill="white"/>
</g>
<g clip-path="url(#clip0_36_240)">
<path d="M44.7675 21.3587C44.6736 21.2464 44.5562 21.1561 44.4236 21.0941C44.291 21.0321 44.1464 21 44 21H23.835L23.2238 17.6425C23.14 17.1817 22.8972 16.7648 22.5377 16.4647C22.1781 16.1645 21.7246 16.0001 21.2562 16H19C18.7348 16 18.4804 16.1054 18.2929 16.2929C18.1054 16.4804 18 16.7348 18 17C18 17.2652 18.1054 17.5196 18.2929 17.7071C18.4804 17.8946 18.7348 18 19 18H21.25L24.445 35.5362C24.5391 36.0563 24.769 36.5423 25.1112 36.945C24.6388 37.3863 24.2978 37.9498 24.1261 38.573C23.9543 39.1962 23.9586 39.8549 24.1383 40.4759C24.318 41.0968 24.6662 41.6559 25.1443 42.0911C25.6223 42.5263 26.2116 42.8205 26.8467 42.9412C27.4818 43.062 28.1379 43.0044 28.7423 42.775C29.3467 42.5456 29.8758 42.1533 30.2708 41.6416C30.6658 41.1299 30.9114 40.5187 30.9804 39.8759C31.0493 39.2332 30.9388 38.5838 30.6613 38H36.3388C36.115 38.4684 35.9993 38.981 36 39.5C36 40.1922 36.2053 40.8689 36.5899 41.4445C36.9744 42.0201 37.5211 42.4687 38.1606 42.7336C38.8001 42.9985 39.5039 43.0678 40.1828 42.9327C40.8617 42.7977 41.4854 42.4644 41.9749 41.9749C42.4644 41.4854 42.7977 40.8617 42.9327 40.1828C43.0678 39.5039 42.9985 38.8001 42.7336 38.1606C42.4687 37.5211 42.0201 36.9744 41.4445 36.5899C40.8689 36.2053 40.1922 36 39.5 36H27.3962C27.1621 36 26.9353 35.9177 26.7555 35.7677C26.5758 35.6176 26.4544 35.4092 26.4125 35.1787L26.0162 33H40.5163C41.2188 32.9999 41.8991 32.7532 42.4384 32.303C42.9777 31.8527 43.3419 31.2275 43.4675 30.5362L44.9875 22.1788C45.0132 22.0343 45.0069 21.886 44.9688 21.7442C44.9308 21.6025 44.8621 21.4709 44.7675 21.3587ZM39.5 38C39.7967 38 40.0867 38.088 40.3334 38.2528C40.58 38.4176 40.7723 38.6519 40.8858 38.926C40.9993 39.2001 41.0291 39.5017 40.9712 39.7926C40.9133 40.0836 40.7704 40.3509 40.5607 40.5607C40.3509 40.7704 40.0836 40.9133 39.7926 40.9712C39.5017 41.0291 39.2001 40.9993 38.926 40.8858C38.6519 40.7723 38.4176 40.58 38.2528 40.3334C38.088 40.0867 38 39.7967 38 39.5C38 39.1022 38.158 38.7206 38.4393 38.4393C38.7206 38.158 39.1022 38 39.5 38ZM27.5 38C27.7967 38 28.0867 38.088 28.3334 38.2528C28.58 38.4176 28.7723 38.6519 28.8858 38.926C28.9994 39.2001 29.0291 39.5017 28.9712 39.7926C28.9133 40.0836 28.7704 40.3509 28.5607 40.5607C28.3509 40.7704 28.0836 40.9133 27.7926 40.9712C27.5017 41.0291 27.2001 40.9993 26.926 40.8858C26.6519 40.7723 26.4176 40.58 26.2528 40.3334C26.088 40.0867 26 39.7967 26 39.5C26 39.1022 26.158 38.7206 26.4393 38.4393C26.7206 38.158 27.1022 38 27.5 38Z" fill="#999999"/>
</g>
<defs>
<filter id="filter0_d_36_240" x="0" y="0" width="64" height="64" filterUnits="userSpaceOnUse" color-interpolation-filters="sRGB">
<feFlood flood-opacity="0" result="BackgroundImageFix"/>
<feColorMatrix in="SourceAlpha" type="matrix" values="0 0 0 0 0 0 0 0 0 0 0 0 0 0 0 0 0 0 127 0" result="hardAlpha"/>
<feOffset dy="4"/>
<feGaussianBlur stdDeviation="2"/>
<feComposite in2="hardAlpha" operator="out"/>
<feColorMatrix type="matrix" values="0 0 0 0 0 0 0 0 0 0 0 0 0 0 0 0 0 0 0.25 0"/>
<feBlend mode="normal" in2="BackgroundImageFix" result="effect1_dropShadow_36_240"/>
<feBlend mode="normal" in="SourceGraphic" in2="effect1_dropShadow_36_240" result="shape"/>
</filter>
<clipPath id="clip0_36_240">
<rect width="32" height="32" fill="white" transform="translate(17 14)"/>
</clipPath>
</defs>
</svg>
