<svg width="44" height="44" viewBox="0 0 44 44" fill="none" xmlns="http://www.w3.org/2000/svg">
<rect width="44" height="44" rx="22" fill="#EDF0F2"/>
<path d="M31.5 22.0579C31.5 16.7786 27.2473 12.5 22 12.5C16.7527 12.5 12.5 16.7786 12.5 22.0579C12.5 26.8293 15.9734 30.7832 20.5156 31.5V24.8207H18.1035V22.0579H20.5156V19.9522C20.5156 17.5571 21.9332 16.2335 24.1041 16.2335C25.1432 16.2335 26.2305 16.4202 26.2305 16.4202V18.7724H25.0318C23.8518 18.7724 23.4844 19.5097 23.4844 20.2658V22.0579H26.1191L25.6979 24.8207H23.4844V31.5C28.0266 30.7832 31.5 26.8293 31.5 22.0579Z" fill="#454545"/>
</svg>
