<svg width="22" height="28" viewBox="0 0 22 28" fill="none" xmlns="http://www.w3.org/2000/svg">
<path d="M16.75 4.96874C15.206 3.18554 13.4682 1.57981 11.5688 0.181244C11.4006 0.0634579 11.2003 0.000274658 10.995 0.000274658C10.7897 0.000274658 10.5894 0.0634579 10.4213 0.181244C8.52531 1.58039 6.7909 3.1861 5.25 4.96874C1.81375 8.91499 0 13.075 0 17C0 19.9174 1.15893 22.7153 3.22183 24.7782C5.28473 26.8411 8.08262 28 11 28C13.9174 28 16.7153 26.8411 18.7782 24.7782C20.8411 22.7153 22 19.9174 22 17C22 13.075 20.1863 8.91499 16.75 4.96874ZM17.9813 18.1675C17.7219 19.6159 17.0251 20.95 15.9846 21.9904C14.944 23.0307 13.6097 23.7273 12.1612 23.9862C12.1079 23.9948 12.054 23.9994 12 24C11.7492 23.9999 11.5075 23.9056 11.323 23.7357C11.1384 23.5658 11.0245 23.3328 11.0037 23.0828C10.9829 22.8328 11.0569 22.5841 11.2108 22.3861C11.3648 22.1881 11.5876 22.0552 11.835 22.0137C13.9062 21.665 15.6637 19.9075 16.015 17.8325C16.0594 17.5709 16.2059 17.3377 16.4223 17.1842C16.6387 17.0306 16.9072 16.9693 17.1688 17.0137C17.4303 17.0582 17.6635 17.2047 17.8171 17.4211C17.9706 17.6374 18.0319 17.9059 17.9875 18.1675H17.9813Z" fill="white"/>
</svg>
