<svg width="44" height="44" viewBox="0 0 44 44" fill="none" xmlns="http://www.w3.org/2000/svg">
<rect width="44" height="44" rx="22" fill="#EDF0F2"/>
<path fill-rule="evenodd" clip-rule="evenodd" d="M22 13C19.5554 13 19.2494 13.0112 18.2898 13.054C17.3313 13.099 16.6788 13.2498 16.105 13.4725C15.5132 13.702 15.0104 14.0102 14.5109 14.5109C14.0102 15.0104 13.7009 15.5121 13.4725 16.105C13.2498 16.6788 13.0979 17.3313 13.054 18.2898C13.009 19.2494 13 19.5554 13 22C13 24.4446 13.0112 24.7506 13.054 25.7102C13.099 26.6687 13.2498 27.3224 13.4725 27.895C13.702 28.4868 14.0102 28.9896 14.5109 29.4891C15.0104 29.9897 15.5121 30.2991 16.105 30.5275C16.6788 30.7502 17.3313 30.9021 18.2898 30.946C19.2494 30.991 19.5554 31 22 31C24.4446 31 24.7506 30.9887 25.7102 30.946C26.6687 30.901 27.3224 30.7502 27.895 30.5275C28.4868 30.298 28.9896 29.9897 29.4891 29.4891C29.9897 28.9896 30.2991 28.4879 30.5275 27.895C30.7502 27.3213 30.9021 26.6687 30.946 25.7102C30.991 24.7506 31 24.4446 31 22C31 19.5554 30.9887 19.2494 30.946 18.2898C30.901 17.3313 30.7502 16.6776 30.5275 16.105C30.298 15.5132 29.9897 15.0104 29.4891 14.5109C28.9896 14.0102 28.4879 13.7009 27.895 13.4725C27.3213 13.2498 26.6687 13.0979 25.7102 13.054C24.7506 13.009 24.4446 13 22 13ZM22 14.62C24.403 14.62 24.6888 14.6312 25.6371 14.674C26.5146 14.7145 26.9905 14.8607 27.3077 14.9845C27.7285 15.1476 28.0278 15.3422 28.3427 15.6572C28.6577 15.9722 28.8524 16.2715 29.0155 16.6922C29.1392 17.0095 29.2855 17.4854 29.326 18.3629C29.3687 19.3124 29.3789 19.597 29.3789 22C29.3789 24.403 29.3676 24.6887 29.3226 25.6371C29.2776 26.5146 29.1314 26.9905 29.0076 27.3078C28.8389 27.7285 28.6476 28.0278 28.3326 28.3428C28.0176 28.6578 27.7139 28.8524 27.2976 29.0155C26.9826 29.1392 26.4989 29.2855 25.6214 29.326C24.6651 29.3687 24.3839 29.3789 21.9764 29.3789C19.5689 29.3789 19.2876 29.3676 18.3314 29.3226C17.4539 29.2776 16.9701 29.1314 16.6551 29.0076C16.2276 28.8389 15.9351 28.6476 15.6201 28.3326C15.3051 28.0176 15.1026 27.7139 14.9451 27.2976C14.8214 26.9826 14.6751 26.4989 14.6301 25.6214C14.5964 24.6764 14.5851 24.3839 14.5851 21.9876C14.5851 19.5914 14.5964 19.2989 14.6301 18.3426C14.6751 17.4651 14.8214 16.9814 14.9451 16.6664C15.1026 16.2389 15.3051 15.9464 15.6201 15.6314C15.9351 15.3164 16.2276 15.1139 16.6551 14.9564C16.9701 14.8326 17.4426 14.6864 18.3201 14.6414C19.2764 14.6076 19.5576 14.5964 21.9651 14.5964L22 14.62ZM22 17.3785C19.4462 17.3785 17.3785 19.4485 17.3785 22C17.3785 24.5538 19.4485 26.6215 22 26.6215C24.5538 26.6215 26.6215 24.5515 26.6215 22C26.6215 19.4462 24.5515 17.3785 22 17.3785ZM22 25.0004C20.3429 25.0004 18.9996 23.6571 18.9996 22C18.9996 20.3429 20.3429 18.9996 22 18.9996C23.6571 18.9996 25.0004 20.3429 25.0004 22C25.0004 23.6571 23.6571 25.0004 22 25.0004ZM27.8837 17.1962C27.8837 17.7925 27.4 18.2762 26.8038 18.2762C26.2075 18.2762 25.7238 17.7925 25.7238 17.1962C25.7238 16.6 26.2075 16.1163 26.8038 16.1163C27.4 16.1163 27.8837 16.6 27.8837 17.1962Z" fill="#454545"/>
</svg>
