<svg width="44" height="44" viewBox="0 0 44 44" fill="none" xmlns="http://www.w3.org/2000/svg">
<rect width="44" height="44" rx="22" fill="#EDF0F2"/>
<path fill-rule="evenodd" clip-rule="evenodd" d="M28.3374 28.3378H25.67V24.1609C25.67 23.1649 25.651 21.8834 24.283 21.8834C22.893 21.8834 22.681 22.9684 22.681 24.0889V28.3378H20.0146V19.7484H22.574V20.9219H22.6105C22.9665 20.2464 23.838 19.5344 25.137 19.5344C27.838 19.5344 28.3374 21.3129 28.3374 23.6264V28.3378ZM17.0046 18.5739C16.1466 18.5739 15.4556 17.8799 15.4556 17.0254C15.4556 16.172 16.1466 15.478 17.0046 15.478C17.8586 15.478 18.5521 16.172 18.5521 17.0254C18.5521 17.8799 17.8586 18.5739 17.0046 18.5739ZM15.6676 28.3378H18.3401V19.7484H15.6676V28.3378ZM29.6669 13H14.3277C13.5957 13 13.0002 13.581 13.0002 14.297V29.7013C13.0002 30.4177 13.5957 30.9997 14.3277 30.9997H29.6669C30.4009 30.9997 31.0004 30.4177 31.0004 29.7013V14.297C31.0004 13.581 30.4009 13 29.6669 13Z" fill="#454545"/>
</svg>
