<svg width="138" height="44" viewBox="0 0 138 44" fill="none" xmlns="http://www.w3.org/2000/svg">
<rect width="137.94" height="44" rx="22" fill="#EDF0F2"/>
<path d="M30.8 24.2499H34.61C34.4555 22.7539 34.4555 21.2459 34.61 19.7499H30.81C30.4057 21.2227 30.4057 22.7771 30.81 24.2499H30.8ZM31.37 25.7499C32.37 27.7899 34.17 29.3599 36.35 30.0799C35.67 28.9799 35.15 27.4799 34.83 25.7499H31.37ZM47.2 24.2499C47.6043 22.7771 47.6043 21.2227 47.2 19.7499H43.39C43.5445 21.2459 43.5445 22.7539 43.39 24.2499H47.19H47.2ZM46.63 25.7499H43.17C42.9287 27.2731 42.4138 28.7401 41.65 30.0799C42.7261 29.7251 43.7207 29.1594 44.5757 28.416C45.4307 27.6726 46.1291 26.7662 46.63 25.7499ZM36.13 24.2499H41.87C42.0383 22.7546 42.0383 21.2452 41.87 19.7499H36.13C35.9617 21.2452 35.9617 22.7546 36.13 24.2499ZM36.36 25.7499C36.92 28.5899 38.05 30.4999 39 30.4999C39.95 30.4999 41.08 28.5999 41.64 25.7499H36.36ZM31.37 18.2499H34.83C35.14 16.5099 35.67 15.0099 36.35 13.9199C35.2739 14.2748 34.2794 14.8404 33.4243 15.5838C32.5693 16.3273 31.8709 17.2336 31.37 18.2499ZM46.63 18.2499C46.1291 17.2336 45.4307 16.3273 44.5757 15.5838C43.7207 14.8404 42.7261 14.2748 41.65 13.9199C42.33 15.0199 42.85 16.5199 43.17 18.2499H46.63ZM48.27 18.2499H48.31V18.3499C49.28 20.8133 49.2336 23.5608 48.1808 25.99C47.1281 28.4192 45.155 30.3319 42.6943 31.3085C40.2335 32.2851 37.4858 32.2461 35.0538 31.1999C32.6218 30.1537 30.7039 28.1858 29.7206 25.7277C28.7373 23.2695 28.769 20.5218 29.8086 18.087C30.8483 15.6521 32.811 13.7289 35.2665 12.7391C37.722 11.7492 40.4698 11.7734 42.9074 12.8065C45.345 13.8396 47.2735 15.7971 48.27 18.2499ZM36.36 18.2499H41.64C41.08 15.4099 39.95 13.4999 39 13.4999C38.05 13.4999 36.92 15.3999 36.36 18.2499Z" fill="#454545"/>
<path d="M65.4841 16.5781C66.958 16.5781 68.0335 16.8802 68.7106 17.4844C69.3877 18.0885 69.7262 18.9349 69.7262 20.0234C69.7262 20.5182 69.6481 20.9896 69.4919 21.4375C69.3408 21.8802 69.0908 22.2734 68.7419 22.6172C68.3929 22.9557 67.932 23.224 67.3591 23.4219C66.7914 23.6198 66.0908 23.7188 65.2575 23.7188H64.0387V28H62.1637V16.5781H65.4841ZM65.3591 18.1328H64.0387V22.1562H65.0622C65.6507 22.1562 66.1507 22.0885 66.5622 21.9531C66.9736 21.8125 67.2861 21.5911 67.4997 21.2891C67.7132 20.987 67.82 20.5885 67.82 20.0938C67.82 19.4323 67.6195 18.9401 67.2184 18.6172C66.8226 18.2943 66.2028 18.1328 65.3591 18.1328ZM75.9684 28H74.0856V18.1719H70.7419V16.5781H79.3044V18.1719H75.9684V28ZM80.1169 24.4844V22.9297H84.1481V24.4844H80.1169ZM86.2106 16.5781H89.6091C91.083 16.5781 92.195 16.7917 92.945 17.2188C93.695 17.6458 94.07 18.3828 94.07 19.4297C94.07 19.8672 93.9919 20.263 93.8356 20.6172C93.6846 20.9661 93.4632 21.2552 93.1716 21.4844C92.8799 21.7083 92.5205 21.8594 92.0934 21.9375V22.0156C92.5361 22.0938 92.9294 22.2318 93.2731 22.4297C93.6221 22.6276 93.8955 22.9115 94.0934 23.2812C94.2966 23.651 94.3981 24.1302 94.3981 24.7188C94.3981 25.4167 94.2315 26.0104 93.8981 26.5C93.57 26.9896 93.0986 27.362 92.4841 27.6172C91.8747 27.8724 91.1507 28 90.3122 28H86.2106V16.5781ZM88.0856 21.2891H89.8825C90.7315 21.2891 91.32 21.151 91.6481 20.875C91.9762 20.599 92.1403 20.1953 92.1403 19.6641C92.1403 19.1224 91.945 18.7318 91.5544 18.4922C91.169 18.2526 90.5544 18.1328 89.7106 18.1328H88.0856V21.2891ZM88.0856 22.8047V26.4297H90.0622C90.9372 26.4297 91.5518 26.2604 91.9059 25.9219C92.2601 25.5833 92.4372 25.125 92.4372 24.5469C92.4372 24.1927 92.3565 23.8854 92.195 23.625C92.0387 23.3646 91.7809 23.1641 91.4216 23.0234C91.0622 22.8776 90.5778 22.8047 89.9684 22.8047H88.0856ZM99.9684 16.5781C100.953 16.5781 101.765 16.6979 102.406 16.9375C103.052 17.1771 103.531 17.5417 103.843 18.0312C104.161 18.5208 104.32 19.1432 104.32 19.8984C104.32 20.4609 104.216 20.9401 104.007 21.3359C103.799 21.7318 103.526 22.0599 103.187 22.3203C102.849 22.5807 102.487 22.7891 102.101 22.9453L105.343 28H103.226L100.468 23.4219H98.6325V28H96.7575V16.5781H99.9684ZM99.8434 18.1406H98.6325V21.875H99.9294C100.799 21.875 101.429 21.7135 101.82 21.3906C102.216 21.0677 102.414 20.5911 102.414 19.9609C102.414 19.2995 102.203 18.8307 101.781 18.5547C101.364 18.2786 100.718 18.1406 99.8434 18.1406Z" fill="#454545"/>
</svg>
