<svg width="44" height="44" viewBox="0 0 44 44" fill="none" xmlns="http://www.w3.org/2000/svg">
<rect width="44" height="44" rx="22" fill="#EDF0F2"/>
<path d="M29.9869 17.3133C29.6721 17.3133 29.3705 17.2875 29.0689 17.2232C28.1639 17.03 27.3508 16.5665 26.7475 15.9099C26.118 15.2403 25.6984 14.3648 25.6197 13.3991V13H24.7541H22.459V25.309C22.459 26.7382 21.2656 27.9099 19.7967 27.9099C18.9311 27.9099 18.1705 27.5107 17.6852 26.8798V26.867C17.3311 26.4163 17.1475 25.8627 17.1475 25.2961C17.1475 23.8541 18.341 22.6953 19.8098 22.6953C20.0852 22.6953 20.3607 22.7339 20.6098 22.8112V19.6695C20.3082 19.6309 19.9934 19.6051 19.6918 19.618C16.5312 19.6824 14 22.206 14 25.309C14 26.8541 14.6295 28.2704 15.6525 29.2876C16.7016 30.3433 18.1705 31 19.8098 31C23.023 31 25.6197 28.4506 25.6197 25.309V19.0258C26.8525 19.8884 28.3607 20.4034 30 20.4034V17.3133H29.9869Z" fill="#454545"/>
</svg>
