<svg width="44" height="44" viewBox="0 0 44 44" fill="none" xmlns="http://www.w3.org/2000/svg">
<rect width="44" height="44" rx="22" fill="#EDF0F2"/>
<path d="M29.7356 16.6882C30.539 16.157 31.1562 15.316 31.4469 14.3138C30.6948 14.8057 29.8618 15.1628 28.9752 15.3552C28.2653 14.5212 27.2538 14 26.1343 14C23.9849 14 22.2422 15.9215 22.2422 18.2916C22.2422 18.6279 22.2766 18.9554 22.343 19.2696C19.1083 19.0906 16.2403 17.3821 14.3208 14.7856C13.9857 15.4194 13.7937 16.1566 13.7937 16.9431C13.7937 18.4321 14.4809 19.7456 15.5252 20.5152C14.8872 20.4929 14.2871 20.2999 13.7624 19.9784C13.762 19.9963 13.762 20.0143 13.762 20.0324C13.762 22.1118 15.1036 23.8463 16.8841 24.2407C16.5575 24.3387 16.2137 24.3912 15.8587 24.3912C15.6079 24.3912 15.3641 24.3642 15.1264 24.3142C15.6217 26.019 17.059 27.26 18.7622 27.2945C17.4302 28.4457 15.752 29.1317 13.9284 29.1317C13.6143 29.1317 13.3045 29.1114 13 29.0716C14.7225 30.2894 16.7683 31 18.9663 31C26.1252 31 30.0402 24.4604 30.0402 18.7891C30.0402 18.6032 30.0363 18.418 30.0288 18.234C30.7893 17.6289 31.4491 16.873 31.9709 16.0125C31.273 16.3537 30.5228 16.5845 29.7356 16.6882Z" fill="#454545"/>
</svg>
