<svg width="44" height="44" viewBox="0 0 44 44" fill="none" xmlns="http://www.w3.org/2000/svg">
<rect width="44" height="44" rx="22" fill="#EDF0F2"/>
<path fill-rule="evenodd" clip-rule="evenodd" d="M29.8139 15.3754C30.6745 15.6069 31.3521 16.2889 31.5821 17.155C32.0001 18.7249 32.0001 22.0001 32.0001 22.0001C32.0001 22.0001 32.0001 25.2753 31.5821 26.8453C31.3521 27.7112 30.6745 28.3933 29.8139 28.6249C28.2543 29.0454 22.0001 29.0454 22.0001 29.0454C22.0001 29.0454 15.746 29.0454 14.1864 28.6249C13.3259 28.3933 12.6481 27.7113 12.4182 26.8452C12.0002 25.2754 12.0002 22.0001 12.0002 22.0001C12.0002 22.0001 12.0002 18.7249 12.4182 17.155C12.6481 16.2889 13.3259 15.6069 14.1864 15.3754C15.746 14.9547 22.0001 14.9547 22.0001 14.9547C22.0001 14.9547 28.2543 14.9547 29.8139 15.3754ZM25.1819 22.0001L19.9547 24.9737V19.0263L25.1819 22.0001Z" fill="#454545"/>
</svg>
